HIERARCHY
ROOT Hips
{
  OFFSET 0 0 0
  CHANNELS 6 Xposition Yposition Zposition Zrotation Xrotation Yrotation
  JOINT Spine
  {
    OFFSET 0 10 0
    CHANNELS 3 Zrotation Xrotation Yrotation
    JOINT Neck
    {
      OFFSET 0 30 0
      CHANNELS 3 Zrotation Xrotation Yrotation
      JOINT Head
      {
        OFFSET 0 8 0
        CHANNELS 3 Zrotation Xrotation Yrotation
        End Site
        {
          OFFSET 0 10 0
        }
      }
    }
    JOINT LeftArm
    {
      OFFSET 15 30 0
      CHANNELS 3 Zrotation Xrotation Yrotation
      JOINT LeftForeArm
      {
        OFFSET 25 0 0
        CHANNELS 3 Zrotation Xrotation Yrotation
        JOINT LeftHand
        {
          OFFSET 25 0 0
          CHANNELS 3 Zrotation Xrotation Yrotation
          End Site
          {
            OFFSET 10 0 0
          }
        }
      }
    }
    JOINT RightArm
    {
      OFFSET -15 30 0
      CHANNELS 3 Zrotation Xrotation Yrotation
      JOINT RightForeArm
      {
        OFFSET -25 0 0
        CHANNELS 3 Zrotation Xrotation Yrotation
        JOINT RightHand
        {
          OFFSET -25 0 0
          CHANNELS 3 Zrotation Xrotation Yrotation
          End Site
          {
            OFFSET -10 0 0
          }
        }
      }
    }
  }
  JOINT LeftUpLeg
  {
    OFFSET 10 -10 0
    CHANNELS 3 Zrotation Xrotation Yrotation
    JOINT LeftLeg
    {
      OFFSET 0 -35 0
      CHANNELS 3 Zrotation Xrotation Yrotation
      JOINT LeftToe
      {
        OFFSET 0 -40 0
        CHANNELS 3 Zrotation Xrotation Yrotation
        JOINT LeftToeEnd
        {
          OFFSET 0 0 0
          CHANNELS 3 Zrotation Xrotation Yrotation
          End Site
          {
            OFFSET 0 0 15
          }
        }
      }
    }
  }
  JOINT RightUpLeg
  {
    OFFSET -10 -10 0
    CHANNELS 3 Zrotation Xrotation Yrotation
    JOINT RightLeg
    {
      OFFSET 0 -35 0
      CHANNELS 3 Zrotation Xrotation Yrotation
      JOINT RightToe
      {
        OFFSET 0 -40 0
        CHANNELS 3 Zrotation Xrotation Yrotation
        JOINT RightToeEnd
        {
          OFFSET 0 0 0
          CHANNELS 3 Zrotation Xrotation Yrotation
          End Site
          {
            OFFSET 0 0 15
          }
        }
      }
    }
  }
}
MOTION
Frames:	19
Frame Time:	0.0333333 
-18.8949 90.1342 -204.636 -166.903 -12.3331 82.7295 21.5204 -3.42513 15.8543 -16.1467 -51.3528 -5.60968 10.7687 0.308784 2.52209 -0.423855 -46.2643 -23.77 23.6256 -14.3061 -41.1196 55.0726 -9.01911 35.3822 -21.268 -54.5728 33.0674 -6.65902 -7.25143 51.9303 -65.2323 -5.9431 -1.84414 30.6682 -20.6057 20.2957 5.7185 59.6315 -6.70592 -1.78837 -15.2555 6.60686 -1.59028e-015 0 -3.18055e-015 -123.051 -35.3871 -98.2375 -11.5954 60.7871 4.71675 -1.23531 -14.3083 -32.2904 0 0 -7.95139e-016 
-18.3424 91.4301 -209.934 -170.5 -7.11512 82.496 18.7412 -8.9907 14.7997 -20.683 -52.7636 -8.22429 14.2329 2.42756 1.76521 7.7931 -43.4847 -17.4427 12.5249 -22.0666 -46.0206 58.6347 -12.4302 36.7627 -30.2894 -57.5604 23.7466 -9.43957 1.18302 55.8873 -59.7057 1.78958 -24.8327 33.4035 -28.8479 25.3276 4.19837 51.8322 -3.89618 -3.44821 -15.3517 8.12987 0 0 -0 -121.111 -38.7688 -98.0582 -17.1288 68.9011 9.4715 -0.802337 -20.1589 -31.1778 -4.77083e-015 3.18055e-015 4.77083e-015 
-17.6416 92.5204 -215.189 -173.162 -4.31287 83.4553 17.2582 -12.1092 12.1677 -24.3292 -55.1664 -10.4603 16.3178 4.05914 2.20145 2.54555 -44.7868 -24.5442 11.8185 -21.7674 -45.5882 62.1408 -15.2684 38.0512 -23.53 -56.8628 34.543 -10.348 3.30316 46.6611 -58.9008 2.24231 -23.3975 40.2029 -38.532 22.7552 2.75428 47.8256 -0.711778 -5.45867 -16.8878 15.5239 -3.18055e-015 0 -0 -116.477 -43.1182 -96.6894 -31.0299 77.4385 22.7604 -0.15498 -25.5273 -29.5927 1.76556e-031 6.36111e-015 -1.59028e-015 
-16.9053 93.8914 -220.344 -173.962 -2.07911 83.9321 15.6937 -11.7051 9.23979 -33.0629 -58.8759 -16.855 18.967 6.1659 1.92962 0.669461 -48.5567 -32.6631 12.8409 -17.1647 -37.109 65.4362 -17.2718 39.0679 -22.8823 -59.5885 36.3063 -16.6084 4.8025 48.2364 -62.2995 -19.5906 -45.4248 51.7972 -46.692 23.1083 2.52772 46.6164 1.86412 -7.01473 -19.2698 21.1677 -3.18055e-015 7.95139e-015 -6.36111e-015 -110.789 -47.6066 -96.2853 -71.4933 83.0501 62.9045 0.39223 -28.4178 -27.8117 3.18055e-015 0 -1.59028e-015 
-15.7857 94.0149 -225.242 -172.131 1.76249 86.5754 12.2346 -7.30755 7.4198 -37.9394 -61.5886 -21.7787 19.1557 6.45885 0.755595 8.46667 -50.1578 -25.9885 4.1426 -26.0141 -38.8596 64.1977 -14.8819 34.277 -26.5319 -63.9755 33.1438 -17.4642 3.97411 53.699 -60.6907 -0.770228 -49.2433 61.9681 -51.7563 26.1391 2.69232 42.2637 2.68854 -7.05652 -19.3454 23.6302 -6.36111e-015 1.59028e-015 -0 -100.61 -47.0655 -92.0191 -120.762 82.3713 111.994 0.303692 -27.8786 -27.5443 8.82781e-032 3.18055e-015 -1.59028e-015 
-14.7599 93.7122 -229.721 -168.734 7.77233 86.8235 6.76318 -1.5203 7.13062 -41.2532 -63.9455 -25.1646 20.65 8.27883 1.25961 15.4368 -52.9996 -23.0086 -0.244847 -27.6774 -36.3857 73.5714 -14.1942 30.2178 -33.127 -67.2208 24.89 -17.6596 2.72512 62.8824 -50.8604 11.9207 -55.1665 71.8653 -51.7009 32.6211 2.81231 38.6966 3.08419 -6.22151 -20.0813 26.9673 -9.54166e-015 -1.39149e-015 1.98785e-015 -89.8015 -45.0175 -84.4449 -135.934 80.7409 126.908 0.0730275 -28.3059 -26.6592 -2.78299e-015 -3.18055e-015 3.18055e-015 
-14.3645 93.1012 -234.596 -164.659 12.8991 86.0059 3.40033 3.70519 7.16315 -37.8829 -65.15 -22.822 19.7336 8.67327 2.32143 23.1267 -54.9228 -18.5389 -2.83661 -25.2695 -33.2047 82.402 -7.38061 28.3946 -43.3745 -67.7601 14.2772 -16.079 0.324908 69.7858 -38.5253 17.424 -60.603 81.6086 -49.2012 36.5622 3.07359 35.6635 3.18629 -4.39176 -20.1047 33.1241 -3.18055e-015 -7.95139e-016 3.18055e-015 -76.4235 -40.4877 -73.334 -124.637 82.2904 115.772 -0.0493387 -28.2297 -26.6479 2.5842e-015 0 7.95139e-016 
-14.4765 92.1346 -239.554 -161.061 17.6446 84.3928 0.900992 7.12497 7.22825 -34.6919 -65.4026 -20.4133 19.6837 8.3723 2.91319 29.4609 -54.7714 -15.4828 -3.81914 -22.9767 -29.7458 90.048 -0.390715 26.4377 -55.4905 -66.1102 5.64314 -12.4278 -2.42379 68.4785 -25.5624 12.7472 -51.2028 89.6863 -44.168 37.4403 3.35769 28.7209 3.0918 -2.21826 -17.4796 41.8376 3.18055e-015 6.36111e-015 3.18055e-015 -62.9214 -34.9712 -60.9686 -61.9632 82.9108 53.9223 0.212992 -28.256 -27.711 1.09332e-015 3.97569e-016 -7.95139e-016 
-15.1728 91.1399 -244.965 -158.973 21.2213 82.8114 0.230545 7.66613 7.16049 -27.22 -64.3138 -13.629 18.9109 8.14387 3.58333 33.7992 -55.6373 -9.29536 -11.2631 -18.8811 -36.3928 96.2759 6.77617 20.9384 -65.1691 -64.1392 2.56237 -9.99169 -2.91689 57.7771 -18.1354 18.9365 -42.6509 95.6147 -36.2032 35.1977 4.18739 16.0118 3.48658 5.38143 -19.4168 49.0188 -0 0 3.18055e-015 -50.253 -30.2438 -49.1638 -24.5752 75.4631 17.6043 0.371514 -28.0239 -31.0432 -2.23633e-016 0 -1.59028e-015 
-16.0421 89.7857 -250.319 -156.739 27.0935 82.8686 -3.00458 7.93298 5.90643 -21.8682 -60.7522 -9.46563 19.3402 7.00195 3.71376 34.274 -55.2523 -5.90235 -15.584 -15.9216 -45.2536 99.064 13.7417 18.6048 -72.2131 -59.8757 0.44317 -11.6538 -2.49527 48.3227 -12.692 18.9559 -34.137 103.635 -35.7529 41.4963 5.35284 16.1162 4.07936 2.66332 -22.5204 50.6395 6.36111e-015 -3.18055e-015 -3.18055e-015 -42.0933 -26.634 -36.4967 -15.8574 68.5752 9.50089 1.98806 -26.1265 -32.2909 5.96354e-016 1.59028e-015 -0 
-16.964 87.9247 -255.726 -154.497 33.0834 85.5542 -5.52457 8.30433 3.60631 -15.4339 -58.3022 -5.34991 18.3681 7.32821 4.02429 30.2636 -54.7953 -6.79287 -15.6448 -14.5394 -52.4019 98.876 20.0248 17.0789 -77.0018 -58.8235 -6.3934 -11.7352 -2.63919 44.4866 -4.7651 21.2927 -24.6658 112.289 -38.4521 52.5352 5.06557 16.6628 3.97597 1.30151 -22.3018 46.628 -1.59028e-015 -1.59028e-015 -3.18055e-015 -35.9774 -23.686 -29.0794 -14.7337 67.372 7.94957 2.82295 -24.2537 -33.7025 7.95139e-016 4.77083e-015 -6.36111e-015 
-17.8383 86.1672 -260.99 -151.18 41.1774 89.9897 -8.90972 9.40879 2.92931 -10.3479 -57.6982 -2.42601 16.8427 8.75435 5.0504 10.0221 -44.7573 -27.6827 -1.21201 -27.9867 -51.3042 92.6943 22.3216 9.74948 -79.4308 -57.9151 -15.6431 -12.2991 -3.2675 44.6515 -2.80404 22.6748 -23.1937 107.256 -39.6192 57.1459 4.51787 0.779152 5.23374 -1.7734 -10.482 44.1551 -1.59028e-015 -1.59028e-015 -6.36111e-015 -32.9824 -21.8324 -28.851 -17.3325 71.8717 8.23586 3.278 -25.3765 -34.11 -1.59028e-015 -3.18055e-015 -3.18055e-015 
-18.7658 83.1526 -266.88 -146.536 47.2792 89.7132 -10.0472 10.7349 1.49968 -3.86039 -55.1975 1.21137 14.0482 7.65804 5.66609 7.40064 -43.2866 -26.2403 -0.437971 -25.9635 -55.9009 89.6185 28.8964 9.56886 -75.5697 -51.8672 -19.3575 -13.3661 -4.03115 44.9173 -2.25069 18.4768 -23.1067 107.682 -42.9964 64.5014 3.46788 0.52035 5.16464 -3.18722 -6.5779 34.7376 7.95139e-016 0 -3.18055e-015 -28.2329 -22.0329 -31.17 -20.5916 74.8245 10.4518 2.22242 -28.2286 -30.795 -6.36111e-015 0 -0 
-19.6513 80.5652 -272.965 -141.271 50.7588 86.3786 -6.98569 11.7023 0.224045 -2.89353 -54.6035 2.01511 13.3406 8.83624 7.25402 -0.19161 -40.9814 -26.8645 -7.82684 -30.8359 -63.1084 93.3025 35.185 -3.23351 -69.8543 -45.3094 -20.4419 -14.0785 -4.50653 44.8957 -1.85354 16.6479 -23.1115 106.968 -44.8372 66.9916 1.73339 2.8743 3.81792 5.45643 -13.596 31.0747 1.98785e-016 1.19271e-015 6.36111e-015 -18.7015 -25.1468 -31.965 -22.2412 75.9166 11.7709 -0.812683 -27.3385 -32.6196 -1.59028e-014 0 -3.18055e-015 
-20.4998 79.3658 -277.988 -136.933 55.4466 85.5961 -9.06828 13.7594 -2.17295 -2.34469 -54.4536 -0.66232 17.0424 8.0245 6.37145 -0.130437 -42.3825 -31.9763 -19.8533 -41.8896 -68.9815 99.9391 37.6213 -26.7921 -60.5474 -41.6321 -22.743 -14.1201 -4.73788 43.4774 -1.35663 12.9522 -22.7267 115.202 -52.0119 72.525 0.88101 17.1543 3.45139 11.8865 -20.8731 36.8046 9.93923e-017 -1.98785e-016 -0 -8.19635 -30.8808 -30.7132 -20.1707 74.6759 9.85136 -4.00889 -26.8041 -33.775 -5.29669e-031 6.36111e-015 4.77083e-015 
-21.3374 78.8153 -283.077 -132.608 59.4921 87.8896 -11.4113 17.0675 -7.12718 4.46429 -54.7072 -0.0677789 15.6497 8.93088 6.78684 -4.25818 -50.8738 -41.8802 -16.912 -38.0299 -62.5806 107.671 38.0665 -34.6474 -49.9435 -42.2179 -24.6761 -14.5454 -5.34124 42.5381 -1.06395 7.25006 -22.4727 129.421 -57.631 92.1213 0.426539 27.5333 4.23439 8.79577 -21.5008 31.7189 1.61513e-016 -4.96962e-017 -0 1.70081 -34.9791 -32.6858 -13.9735 68.6264 4.17571 -6.55327 -26.0211 -36.0842 4.41391e-032 1.59028e-015 -1.59028e-015 
-21.4769 78.8867 -287.219 -124.653 63.817 86.5069 -11.4753 22.0737 -10.5832 5.63098 -55.8547 -0.653278 15.402 10.2558 7.09445 -4.27585 -46.3207 -41.5911 -39.0486 -48.3585 -82.5237 108.363 28.4209 -45.5197 -41.4419 -40.0974 -27.2092 -15.2553 -6.08334 42.2475 -0.852202 4.73155 -22.7369 134.292 -62.0071 106.773 -0.0138466 29.4067 5.45653 9.82028 -20.4622 25.8862 3.10601e-018 -2.48481e-017 -0 7.81216 -35.0603 -37.8014 -8.29895 56.7892 -0.857907 -5.33238 -18.5112 -34.751 -0 0 1.68967e-015 
-21.5062 79.4609 -290.923 -111.064 68.9159 76.0633 -12.4971 26.4027 -9.41132 1.88834 -56.094 -3.44969 17.3347 9.42278 5.62051 7.53542 -43.1974 -24.3476 -32.3684 -41.7274 -80.8942 78.8528 22.1328 -17.5111 -34.7185 -36.4167 -29.7264 -15.3209 -6.27191 41.5811 -0.942854 5.65115 -22.8213 134.398 -65.8795 110.709 -0.328147 33.1114 6.04291 10.5094 -19.8913 25.7195 1.07761e-035 -1.94126e-019 3.18055e-015 12.238 -32.9678 -38.9142 -5.83156 44.2728 -2.72441 -3.71353 -12.0352 -31.6913 1.59028e-015 -1.98785e-016 4.22417e-016 
-21.8541 79.9639 -294.623 -97.0224 72.4095 60.6587 -13.6104 26.0962 -6.3407 2.80474 -52.8386 -2.59998 16.5622 7.68517 4.11949 14.2504 -31.7832 -12.1062 -15.6589 -40.9763 -72.1263 52.9835 -6.09 0.402992 -27.1073 -34.5046 -28.4534 -15.3651 -6.58164 41.3702 -1.04817 5.48995 -22.8418 133.048 -66.5938 108.4 -0.355021 37.3051 6.22882 11.0493 -18.7527 29.2399 3.88251e-019 3.88251e-019 -3.18055e-015 18.7104 -29.8485 -34.8448 -4.47011 31.6785 -3.59351 -2.98668 -6.63243 -30.2727 -0 0 1.98785e-016 
